<?xml version="1.0" standalone="no"?><!DOCTYPE svg PUBLIC "-//W3C//DTD SVG 1.1//EN" "http://www.w3.org/Graphics/SVG/1.1/DTD/svg11.dtd"><svg t="1547521053586" class="icon" style="" viewBox="0 0 1024 1024" version="1.1" xmlns="http://www.w3.org/2000/svg" p-id="4886" xmlns:xlink="http://www.w3.org/1999/xlink" width="200" height="200"><defs><style type="text/css"></style></defs><path d="M512 409.6c-33.792 0-64.512 29.696-64.512 64.512 0 33.792 29.696 64.512 64.512 64.512 33.792 0 63.488-29.696 63.488-64.512C575.488 435.2 545.792 409.6 512 409.6zM303.104 409.6c-33.792 0-64.512 29.696-64.512 64.512 0 33.792 29.696 64.512 64.512 64.512s64.512-29.696 64.512-64.512C366.592 435.2 336.896 409.6 303.104 409.6zM512 94.208C260.096 94.208 55.296 264.192 55.296 468.992c0 102.4 51.2 191.488 128 260.096l-47.104 196.608 247.808-94.208c43.008 8.192 84.992 17.408 128 17.408 251.904 0 456.704-166.912 456.704-375.808S763.904 94.208 512 94.208zM512 801.792c-38.912 0-80.896-4.096-119.808-13.312-4.096 0-8.192 0-8.192 0-4.096 0-8.192 0-17.408 4.096l-171.008 68.608 29.696-119.808c4.096-17.408 0-29.696-13.312-43.008C136.192 635.904 94.208 555.008 94.208 468.992c0-183.296 187.392-332.8 417.792-332.8s417.792 149.504 417.792 332.8S742.4 801.792 512 801.792zM720.896 409.6c-33.792 0-64.512 29.696-64.512 64.512 0 33.792 29.696 64.512 64.512 64.512s64.512-29.696 64.512-64.512C780.288 435.2 755.712 409.6 720.896 409.6z" p-id="4887" fill="#ffffff"></path></svg>