<?xml version="1.0" standalone="no"?><!DOCTYPE svg PUBLIC "-//W3C//DTD SVG 1.1//EN" "http://www.w3.org/Graphics/SVG/1.1/DTD/svg11.dtd"><svg t="1547522798470" class="icon" style="" viewBox="0 0 1024 1024" version="1.1" xmlns="http://www.w3.org/2000/svg" p-id="5471" xmlns:xlink="http://www.w3.org/1999/xlink" width="200" height="200"><defs><style type="text/css"></style></defs><path d="M981.333333 320c0-153.6-123.733333-277.333333-277.333333-277.333333-74.666667 0-142.933333 29.866667-192 76.8C462.933333 72.533333 394.666667 42.666667 320 42.666667 166.4 42.666667 42.666667 166.4 42.666667 320c0 17.066667 2.133333 38.4 2.133333 32C74.666667 625.066667 471.466667 981.333333 512 981.333333s437.333333-356.266667 467.2-629.333333C979.2 358.4 981.333333 337.066667 981.333333 320zM936.533333 347.733333C913.066667 576 590.933333 887.466667 512 934.4 433.066667 887.466667 110.933333 576 87.466667 347.733333c0 0-2.133333-12.8-2.133333-27.733333C85.333333 189.866667 189.866667 85.333333 320 85.333333c59.733333 0 119.466667 23.466667 162.133333 66.133333L512 179.2l29.866667-27.733333C584.533333 108.8 644.266667 85.333333 704 85.333333c130.133333 0 234.666667 104.533333 234.666667 234.666667C938.666667 334.933333 936.533333 347.733333 936.533333 347.733333z" p-id="5472" fill="#d81e06"></path></svg>