<?xml version="1.0" standalone="no"?><!DOCTYPE svg PUBLIC "-//W3C//DTD SVG 1.1//EN" "http://www.w3.org/Graphics/SVG/1.1/DTD/svg11.dtd"><svg t="1548993348157" class="icon" style="" viewBox="0 0 1024 1024" version="1.1" xmlns="http://www.w3.org/2000/svg" p-id="1231" xmlns:xlink="http://www.w3.org/1999/xlink" width="200" height="200"><defs><style type="text/css"></style></defs><path d="M648.3 383c0 1.7 0.6 3.1 1.6 4.4 0.2 0.3 0.5 0.6 0.8 0.9 1.5 1.3 3.3 2 5.4 2 2-0.2 3.8-0.9 5.2-2.4 1.3-1.6 2-3.4 2-5.5-2.2-52.8-22.2-98.1-60.1-136-39.7-39.8-87.7-59.6-144.1-59.6-56.3 0-104.5 19.8-144.5 59.6-39.7 40-59.5 88.2-59.5 144.5 0 29.2 5.5 56.3 16.4 81.2 0.9 1.9 2.2 3.2 4.1 4 2 0.7 3.9 0.7 5.8-0.1 1.9-0.9 3.2-2.2 4-4.2 0.7-1.9 0.7-3.8-0.1-5.7-10.2-23.1-15.2-48.2-15.2-75.2 0-52.2 18.4-96.9 55.1-133.9 0-0.1 0-0.1 0.1-0.1 37-36.7 81.7-55.1 133.8-55.1 52.3 0 96.8 18.4 133.5 55.1 26 26 42.9 55.9 50.8 89.5 2.8 11.7 4.4 24 4.9 36.6z" fill="#323333" p-id="1232"></path><path d="M650 387.4c-1-1.3-1.6-2.7-1.6-4.4-0.5-12.6-2.2-24.9-4.9-36.6-7.7-26-21.9-49.2-42.8-69.9-32.1-32.1-71-48.2-116.5-48.2-45.8 0-85 16.1-117.6 48.2-32.2 32.6-48.3 71.6-48.3 117.1 0 17.8 2.4 34.4 7.2 50l2.2-2.5c0-0.1 0.1-0.1 0.2-0.1 0-0.1 0.1-0.2 0.2-0.2 1.4-1.4 3.1-2.2 5-2.3h15.1c37.2-31.7 68.3-64.8 93.2-99.3 3.7-5.1 7-9.9 9.8-14.4 1.3-2 3-3.2 5-3.5l47-14.3c0.7-0.2 1.3-0.3 2-0.3 1.7 0 3.2 0.4 4.5 1.4l11 6.5 24.5-9.7c0.9-0.3 1.8-0.5 2.8-0.5 2 0 3.8 0.8 5.2 2.2 0.3 0.3 0.5 0.4 0.6 0.7 10.2 10.8 20.1 21.5 29.9 31.9 22.5 23.8 44.5 46.5 66 67.9 0.3-4.5 0.4-9 0.4-13.5-0.1-2.1-0.1-4.2-0.1-6.2z" fill="#EB9FAB" p-id="1233"></path><path d="M676 458.8l10 5.8L868.8 649c0.3 0.3 0.8 0.7 1.2 1 1.1 0.7 2.4 1 3.9 1 2.1 0 4-0.7 5.7-2 1.3-1.7 2-3.6 2-5.7 0-2-0.7-3.7-2-5L696.3 452.4c-15.4-14.5-30.9-29.5-46.7-45.3-21.5-21.4-43.5-44.1-66-67.9-9.8-10.4-19.7-21.1-29.9-31.9-0.1-0.3-0.3-0.4-0.6-0.7-1.4-1.4-3.2-2.2-5.2-2.2-1 0-1.9 0.2-2.8 0.5l-24.5 9.7-11-6.5c-1.3-1-2.8-1.4-4.5-1.4-0.7 0-1.3 0.1-2 0.3l-47 14.3c-2 0.3-3.7 1.5-5 3.5-2.8 4.5-6.1 9.3-9.8 14.4-24.9 34.5-56 67.6-93.2 99.3H333c-1.9 0.1-3.6 0.9-5 2.3-0.1 0-0.2 0.1-0.2 0.2-0.1 0-0.2 0-0.2 0.1l-2.2 2.5-189.3 210.5c-1.3 1.7-2 3.6-2 5.7 0 2 0.8 3.7 2.6 5 1.3 1.4 3 2.1 5.1 2.1h683c2 0 3.9-0.7 5.6-2.1 1.4-1.7 2.1-3.5 2.1-5.6v-0.6c-0.2-1.8-0.9-3.3-2.1-4.5-1.7-1.7-3.6-2.6-5.6-2.6H159.2l177.6-197.6h12.8c1.4 0.4 2.8 0.1 4.1-0.5l53.3-22.5 12.3 34.3c0.2 0.5 0.4 0.9 0.7 1.4 0.3 0.7 0.8 1.2 1.3 1.8 1.5 1.4 3.3 2.2 5.3 2.2s3.9-0.8 5.3-2.2c0.1-0.1 0.1-0.1 0.2-0.1l39.4-39.5 26.6 42.7c0.4 0.8 0.9 1.5 1.5 2.1 1.5 1.5 3.3 2.2 5.3 2.2 2.1 0 3.9-0.7 5.3-2.2 0.2-0.1 0.3-0.3 0.4-0.5v0.1c0.1-0.1 0.2-0.2 0.3-0.2l42.5-56 67.1 48.7c0.1 0.1 0.4 0.3 0.6 0.4 1.3 1 2.8 1.4 4.4 1.4 2.1 0 3.9-0.7 5.3-2.2 1.5-1.4 2.2-3.2 2.2-5.3 0-0.5 0-1-0.1-1.5-0.1-0.2-0.1-0.4-0.1-0.5l-6.7-28.6 49.9 29.4zM460.3 339.2c1.1-1.3 2.1-2.7 3.1-4.1l41.5-12.2 10.7 6.6c1.1 0.4 2.3 0.6 3.6 1 1 0 2-0.1 3-0.5l23.6-8.7c5.8 5.8 11.4 11.7 16.9 17.9 2.7 2.8 5.4 5.7 8 8.5 23.8 25.2 46.9 49.2 69.4 71.9l-21-12.8c-2.1-1-4-1.2-5.7-0.5-2 0.3-3.5 1.3-4.6 3.1-1.3 1.7-1.7 3.7-1.1 6.1l5.7 26.1-56.8-41.5c-1.7-1.3-3.6-1.8-5.6-1.5-2.1 0.3-3.8 1.4-5.2 3.1L505.4 455l-25.5-41.6c-0.4-0.8-0.9-1.5-1.6-2.2-1.4-1.4-3.2-2.2-5.3-2.2-2 0-3.8 0.8-5.3 2.2 0 0.1-0.1 0.2-0.1 0.2h-0.1l-37.6 37.1-0.3 0.3-11.1-30.4c-0.4-1.3-1-2.4-2-3.4-1.4-1.5-3.3-2.2-5.3-2.2-1.3 0-2.5 0.3-3.5 0.9v-0.1l-17 7.5c26.9-26.2 50.2-53.6 69.6-81.9z" fill="#323333" p-id="1234"></path><path d="M489.5 360.8c-0.1 0-0.3 0-0.3 0.1-1 1.4-2 2.7-3 4.1-17.1 24.9-37.1 49.1-60 72.6 0 0.1 0 0.2-0.1 0.3 0 0.1 0 0.2 0.1 0.3l3.7 10.3 37.6-37.1h0.1s0.1-0.1 0.1-0.2c1.5-1.4 3.3-2.2 5.3-2.2 2.1 0 3.9 0.8 5.3 2.2 0.7 0.7 1.2 1.4 1.6 2.2l25.5 41.6 40.4-53.3c1.4-1.7 3.1-2.8 5.2-3.1 2-0.3 3.9 0.2 5.6 1.5l56.8 41.5-5.7-26.1c-0.6-2.4-0.2-4.4 1.1-6.1 1.1-1.8 2.6-2.8 4.6-3.1 1.7-0.7 3.6-0.5 5.7 0.5l21 12.8c-22.5-22.7-45.6-46.7-69.4-71.9l-22.3 7.9c-1 0.3-2 0.5-2.9 0.5-1.3-0.3-2.5-0.7-3.4-1l-10.7-6.6c-0.1-0.1-0.2-0.1-0.2-0.1h-0.3l-41.4 12.4z" fill="#FFFFFF" p-id="1235"></path><path d="M686 464.6l-10-5.8-31.1-7.1-5.6 40.6-83.6-55-49.2 64.5-38.4-52.2-45 47-21.9-49.3-38.3 22-158.8 182.2h620.7c2 0 3.9 0.9 5.6 2.6 1.2 1.2 1.9 2.7 2.1 4.5L870 650c-0.4-0.3-0.9-0.7-1.2-1L686 464.6z" fill="#979FCF" p-id="1236"></path><path d="M802.7 726.5c1.4 1.5 3.2 2.2 5.3 2.2h124.9c2.1 0 3.8-0.7 5.3-2.2 1.5-1.4 2.2-3.3 2.2-5.3 0-2.1-0.7-3.9-2.2-5.3-1.5-1.4-3.2-2.2-5.3-2.2H808c-2.1 0-3.9 0.8-5.3 2.2-1.5 1.4-2.2 3.2-2.2 5.3 0 2 0.7 3.9 2.2 5.3z m-53-10.6c-1.4-1.4-3.2-2.2-5.2-2.2H91.2c-2.1 0-3.9 0.8-5.3 2.2-1.5 1.4-2.2 3.2-2.2 5.3 0 2 0.7 3.9 2.2 5.3 1.4 1.5 3.2 2.2 5.3 2.2h653.3c2 0 3.8-0.7 5.2-2.2 1.5-1.4 2.3-3.3 2.3-5.3 0-2.1-0.8-3.9-2.3-5.3z m165 54.2c-1.5-1.4-3.3-2.1-5.3-2.1H532.5c-2 0-3.8 0.7-5.3 2.1-1.5 1.5-2.2 3.3-2.2 5.4 0 2 0.7 3.8 2.2 5.2 1.5 1.5 3.3 2.3 5.3 2.3h376.9c2 0 3.8-0.8 5.3-2.3 1.4-1.4 2.2-3.2 2.2-5.2-0.1-2.1-0.9-3.9-2.2-5.4z m-503.2 65c1.4 1.4 3.2 2.1 5.2 2.1h291.9c2.1 0 3.9-0.7 5.3-2.1 1.5-1.5 2.2-3.3 2.2-5.4 0-2-0.7-3.8-2.2-5.2-1.4-1.5-3.2-2.3-5.3-2.3h-292c-2 0-3.8 0.8-5.2 2.3-1.5 1.4-2.3 3.2-2.3 5.2 0 2.1 0.9 3.9 2.4 5.4z m-28.4-10.6c-1.5-1.5-3.3-2.3-5.3-2.3h-46.1c-2.1 0-3.8 0.8-5.3 2.3-1.4 1.4-2.2 3.2-2.2 5.2 0 2.1 0.8 3.9 2.2 5.4 1.5 1.4 3.2 2.1 5.3 2.1h46.1c2 0 3.8-0.7 5.3-2.1 1.4-1.5 2.2-3.3 2.2-5.4 0.1-2-0.8-3.8-2.2-5.2zM801 326.8v-15h-31.1c-7.8 0-14.6 2.7-20.2 8.2-6 6-8.8 12.9-8.8 20.8s3 14.7 9.1 20.3c5.4 5.3 11.9 8.2 19.4 8.6 0.2 0.1 0.3 0.1 0.5 0.1h51.7c3.5 0 6.5 1.3 9.1 3.9 2.9 2.9 4.4 6.2 4.4 10.1 0 3.6-1.4 6.7-4.2 9.3-0.1 0-0.2 0.2-0.2 0.2-2.8 2.7-6.1 4.2-10 4.5h-56.5c-2.1 0-3.9 0.7-5.3 2.1-1.5 1.5-2.2 3.3-2.2 5.4 0 2 0.7 3.8 2.2 5.2 1.4 1.5 3.2 2.3 5.3 2.3h57.2c7.7-0.5 14.2-3.4 19.6-8.7 6-5.6 9.1-12.4 9-20.3 0.1-7.9-2.9-14.8-8.9-20.7-5.5-5.6-12.1-8.4-19.6-8.3H770c-3.8-0.4-7-1.9-9.7-4.5-0.1-0.1-0.1-0.2-0.1-0.2-2.8-2.6-4.2-5.7-4.3-9.3 0.1-3.8 1.6-7.2 4.4-10.2h0.1c2.6-2.6 5.8-3.8 9.5-3.8H801z" fill="#323333" p-id="1237"></path><path d="M801 311.8v15h91.7c1.9 0 3.5-0.6 4.8-1.8 0.2-0.1 0.4-0.3 0.6-0.5 1.4-1.4 2.1-3.2 2.1-5.2 0-2.1-0.7-3.9-2.1-5.4-0.2-0.1-0.4-0.3-0.6-0.5-1.3-1.1-2.9-1.6-4.8-1.6H801z m-54.8 93.5c0-2.1-0.7-3.9-2.2-5.4-1.4-1.4-3.3-2.1-5.3-2.1h-23.1c-2 0-3.9 0.7-5.3 2.1-1.4 1.5-2.2 3.3-2.2 5.4 0 2 0.8 3.8 2.2 5.2 1.4 1.5 3.3 2.3 5.3 2.3h23.1c2 0 3.9-0.8 5.3-2.3 1.5-1.4 2.2-3.2 2.2-5.2z m-578.1 35c0.1 0.1 0.2 0.1 0.2 0.2 2.8 2.6 4.2 5.7 4.2 9.4s-1.5 7.1-4.4 10c-2.6 2.6-5.6 3.9-9.1 3.9h-44.6c-0.2 0-0.4 0-0.5 0.1-7.6 0.4-14.1 3.4-19.5 8.6-6 5.6-9.1 12.4-9 20.3-0.1 7.8 2.8 14.7 8.8 20.7v0.1c5.6 5.5 12.3 8.2 20.2 8.2h99c1.8 0 3.4-0.5 4.8-1.7 0.2-0.1 0.3-0.3 0.5-0.5 1.5-1.4 2.2-3.2 2.2-5.3 0-2-0.7-3.8-2.2-5.3-0.2-0.1-0.3-0.3-0.5-0.5-1.4-1.1-3-1.7-4.8-1.7h-99c-3.7 0-7-1.3-9.6-3.8-2.9-3-4.4-6.4-4.4-10.2 0-3.6 1.4-6.7 4.2-9.3 0.1 0 0.1-0.1 0.2-0.2 2.6-2.7 5.9-4.2 9.6-4.5H159c7.5 0.1 14.1-2.7 19.7-8.3 6-6 8.9-12.9 8.8-20.6 0.1-8-3-14.8-9-20.4-5.4-5.4-11.9-8.2-19.6-8.6h-48c-2.1 0-3.9 0.7-5.4 2.1-1.4 1.5-2.1 3.3-2.1 5.4 0 2 0.7 3.8 2.1 5.2 1.5 1.5 3.3 2.3 5.4 2.3h47.2c3.8 0.2 7.3 1.6 10 4.4z" fill="#323333" p-id="1238"></path></svg>